<?xml version="1.0" encoding="utf-8"?>
<!-- Generator: Adobe Illustrator 16.0.3, SVG Export Plug-In . SVG Version: 6.00 Build 0)  -->
<!DOCTYPE svg PUBLIC "-//W3C//DTD SVG 1.1//EN" "http://www.w3.org/Graphics/SVG/1.1/DTD/svg11.dtd">
<svg version="1.1" id="Lager_1" xmlns="http://www.w3.org/2000/svg" xmlns:xlink="http://www.w3.org/1999/xlink" x="0px" y="0px"
	 width="610.875px" height="111.068px" viewBox="1.125 339.097 610.875 111.068"
	 enable-background="new 1.125 339.097 610.875 111.068" xml:space="preserve">
<g>
	<g>
		<g>
			<defs>
				<rect id="SVGID_1_" x="1.125" y="339.097" width="610.875" height="111.068"/>
			</defs>
			<clipPath id="SVGID_2_">
				<use xlink:href="#SVGID_1_"  overflow="visible"/>
			</clipPath>
			<path clip-path="url(#SVGID_2_)" fill="#9B1E31" d="M522.649,404.428c-0.029,0.428-0.561,11.271,7.126,19.412
				c5.354,5.671,13.332,8.547,23.715,8.547c10.493,0,18.528-2.874,23.886-8.542c7.484-7.909,6.995-18.302,6.966-18.739v-46.189
				H522.65L522.649,404.428L522.649,404.428z"/>
		</g>
	</g>
	<g>
		<g>
			<defs>
				<rect id="SVGID_3_" x="1.125" y="339.097" width="610.875" height="111.068"/>
			</defs>
			<clipPath id="SVGID_4_">
				<use xlink:href="#SVGID_3_"  overflow="visible"/>
			</clipPath>
			<path clip-path="url(#SVGID_4_)" fill="#F9C506" d="M544.152,430.379c-5.618-1.225-10.17-3.657-13.585-7.272
				c-2.117-2.236-3.582-4.72-4.595-7.124l-0.453-1.144c-1.643-4.451-1.804-8.446-1.804-9.849c0-0.332,0.007-0.521,0.007-0.531
				c0,0,0.003-43.416,0.003-44.467h59.543v45.141c0,0.019,0.008,0.187,0.008,0.48c0,2.128-0.401,10.861-6.689,17.504
				c-5.146,5.436-12.914,8.192-23.096,8.192c-2.916,0-5.634-0.23-8.146-0.692L544.152,430.379z"/>
		</g>
	</g>
	<g>
		<g>
			<defs>
				<rect id="SVGID_5_" x="1.125" y="339.097" width="610.875" height="111.068"/>
			</defs>
			<clipPath id="SVGID_6_">
				<use xlink:href="#SVGID_5_"  overflow="visible"/>
			</clipPath>
			<path clip-path="url(#SVGID_6_)" fill="#ED2D24" d="M583.275,380.554c-0.367,0.789-0.708,1.468-1.113,1.965
				c-1.511,1.85-3.412,2.898-5.138,4.08c-1.492,1.021-2.505,1.884-3.628,3.174c-1.347,1.545-1.773,2.779-2.343,4.305l-0.303,0.757
				l-0.829,2.797c-0.546,1.881-1.3,3.509-2.346,4.911c-1.662,2.228-2.861,3.319-3.929,4.08l-1.287,0.683
				c-1.095,0.682-2.113,1.295-3.701,3.098c-1.644,1.864-2.644,5.045-3.706,8.089c-0.626,1.81-1.46,3.66-1.964,4.382
				c-1.817,2.609-2.345,3.17-3.7,4.004l-1.512,1.057c-1.279,0.886-2.047,1.719-2.852,2.64c-5.078-0.999-9.021-2.71-12.091-5.335
				c-4.22-3.28-5.947-6.851-7.079-9.691c2.833-2.433,7.381-6.522,8.189-9.603l0.306-1.438c0.47-1.949,1.275-4.337,3.4-7.177
				c2.023-2.71,3.354-3.663,4.761-4.687c1.347-0.982,2.694-1.871,4.762-4.533c0.883-1.141,1.279-2.631,2.04-4.609
				c1.087-2.847,2.331-6.254,4.458-8.615c0.627-0.698,1.809-1.618,2.869-2.419c1.73-1.302,3.543-2.721,5.29-4.986
				c1.602-2.079,2.801-5.682,3.326-7.497l18.114-0.005v20.575L583.275,380.554L583.275,380.554z"/>
		</g>
	</g>
	<g>
		<g>
			<defs>
				<rect id="SVGID_7_" x="1.125" y="339.097" width="610.875" height="111.068"/>
			</defs>
			<clipPath id="SVGID_8_">
				<use xlink:href="#SVGID_7_"  overflow="visible"/>
			</clipPath>
			<path clip-path="url(#SVGID_8_)" fill="#231F20" d="M248.83,365.664c0-5.176-4.088-5.348-6.508-5.515v-1.413l12.934-1.836v35.968
				l15.682-16.36h5.675l-15.432,16.107l18.274,22.695h-7.76l-16.271-20.357h-0.167v20.357h-6.426L248.83,365.664L248.83,365.664z"/>
		</g>
	</g>
	<g>
		<g>
			<defs>
				<rect id="SVGID_9_" x="1.125" y="339.097" width="610.875" height="111.068"/>
			</defs>
			<clipPath id="SVGID_10_">
				<use xlink:href="#SVGID_9_"  overflow="visible"/>
			</clipPath>
			<path clip-path="url(#SVGID_10_)" fill="#231F20" d="M278.939,396.109c0-12.255,5.083-20.518,17.268-20.518
				c10.931,0,17.518,7.925,17.518,20.436c0,12.603-5.669,20.2-17.354,20.2C285.198,416.229,278.939,408.056,278.939,396.109
				 M296.452,412.967c9.52,0,10.185-10.514,10.185-16.857c0-6.835-1.339-17.262-10.346-17.262c-9.848,0-10.264,10.427-10.264,17.262
				C286.027,402.37,287.535,412.967,296.452,412.967"/>
		</g>
	</g>
	<g>
		<g>
			<defs>
				<rect id="SVGID_11_" x="1.125" y="339.097" width="610.875" height="111.068"/>
			</defs>
			<clipPath id="SVGID_12_">
				<use xlink:href="#SVGID_11_"  overflow="visible"/>
			</clipPath>
			<path clip-path="url(#SVGID_12_)" fill="#231F20" d="M407.546,375.594c-7.503,0-10.931,7.174-12.177,10.012h-0.17
				c0-5.921-2.091-10.012-9.929-10.012c-6.758,0-11.016,7.093-12.016,10.012h-0.173l-0.038-0.084
				c-0.241-5.329-1.64-9.928-9.877-9.928c-7.513,0-10.935,7.174-12.181,10.012h-0.171c0-5.921-2.089-10.012-9.928-10.012
				c-6.761,0-11.018,7.093-12.021,10.012H328.7v-10.012l-12.765,2.004v1.418c2.423,0.246,6.344,0.5,6.344,5.504v30.791h6.421
				v-19.859c0-6.928,4.93-15.767,10.266-15.767c5.509,0,5.509,4.167,5.509,8.675v26.95h6.426v-20.19
				c0-7.767,5.757-15.435,10.096-15.435c5.087,0,5.609,3.496,5.665,8.668v26.956h6.431v-20.082
				c0.104-6.892,4.971-15.543,10.261-15.543c5.501,0,5.501,4.167,5.501,8.674v26.95h6.427v-20.19
				c0-7.767,5.763-15.435,10.101-15.435c5.679,0,5.679,4.338,5.679,10.51v25.117h6.418v-26.45
				C417.475,382.27,417.475,375.594,407.546,375.594"/>
		</g>
	</g>
	<g>
		<g>
			<defs>
				<rect id="SVGID_13_" x="1.125" y="339.097" width="610.875" height="111.068"/>
			</defs>
			<clipPath id="SVGID_14_">
				<use xlink:href="#SVGID_13_"  overflow="visible"/>
			</clipPath>
			<path clip-path="url(#SVGID_14_)" fill="#231F20" d="M473.199,375.594c-8.35,0-12.687,7.843-13.931,11.097h-0.161v-11.097h-0.002
				l-12.768,2.004v1.418c2.418,0.246,6.343,0.5,6.343,5.504v11.933c0,5.423-5.171,15.687-10.681,15.687
				c-5.681,0-7.009-5.088-7.009-10.514v-26.032l-12.688,2.004v1.418c2.341,0.246,6.264,0.5,6.264,5.504v16.014
				c0,9.269,2.084,15.693,11.43,15.693c7.513,0,11.431-7.09,12.52-10.096h0.164v9.177h6.428v-19.89
				c0.019-5.516,5.672-15.736,11.754-15.736c5.849,0,5.849,4.167,5.849,8.674v26.95h6.424v-29.705
				C483.133,379.685,481.293,375.594,473.199,375.594"/>
		</g>
	</g>
	<g>
		<g>
			<defs>
				<rect id="SVGID_15_" x="1.125" y="339.097" width="610.875" height="111.068"/>
			</defs>
			<clipPath id="SVGID_16_">
				<use xlink:href="#SVGID_15_"  overflow="visible"/>
			</clipPath>
			<path clip-path="url(#SVGID_16_)" fill="#231F20" d="M110.572,375.621c-7.926,0-10.013,6.424-11.103,9.925h-0.167v-9.925
				l-12.767,2.442l-5.998,1.072l-10.462,27.601l-12.43-30.2H38.048v-12.679l-6.349,5.592v7.087l-2.355-0.005v2.833l2.355,0.015
				v25.109c0,7.849,0.756,11.77,11.933,11.77c1.59,0,3.176-0.17,4.758-0.502v-3.089c-0.999,0.164-2.087,0.33-3.167,0.33
				c-4.091,0-7.092-1.078-7.092-6.093V379.37h7.926c5.583,0.439,6.21,1.287,8.417,6.598l12.351,29.373l-1.09,2.92
				c-2.75,7.173-4.088,10.851-7.588,10.851c-3.921,0-5.011-4.762-5.011-6.933H45.88c0,3.003,2.25,10.187,11.093,10.187
				c7.849,0,10.018-5.838,13.521-15.021l13.052-34.636c-0.001,0,0.941-2.434,3.174-2.457c1.929-0.056,6.156,0.621,6.156,5.876
				v29.211h6.425v-20.021c0-5.095,1.174-13.271,9.269-13.271c0.913,0,1.833,0.336,2.752,0.586v-6.928
				C111.074,375.621,110.822,375.621,110.572,375.621"/>
		</g>
	</g>
	<g>
		<g>
			<defs>
				<rect id="SVGID_17_" x="1.125" y="339.097" width="610.875" height="111.068"/>
			</defs>
			<clipPath id="SVGID_18_">
				<use xlink:href="#SVGID_17_"  overflow="visible"/>
			</clipPath>
			<path clip-path="url(#SVGID_18_)" fill="#231F20" d="M144.083,414.753c-0.996,0.421-5.169,1.504-10.348,1.504
				c-12.261,0-19.438-7.602-19.438-21.528c0-12.015,4.585-19.107,16.772-19.107c7.844,0,14.017,4.589,14.017,14.519v1.249h-24.37
				v1.753c0,8.096,5.844,19.854,17.439,19.854c2.002,0,4.087-0.497,5.925-0.996v2.752H144.083L144.083,414.753z M137.823,387.802
				c0-4.676-2.833-8.928-7.845-8.928c-7.588,0-8.93,6.842-9.177,9.677h17.02v-0.749H137.823z"/>
		</g>
	</g>
	<g>
		<g>
			<defs>
				<rect id="SVGID_19_" x="1.125" y="339.097" width="610.875" height="111.068"/>
			</defs>
			<clipPath id="SVGID_20_">
				<use xlink:href="#SVGID_19_"  overflow="visible"/>
			</clipPath>
			<path clip-path="url(#SVGID_20_)" fill="#231F20" d="M174.037,382.905c-1.477-1.026-5.42-4.031-10.096-4.031
				c-3.584,0-6.926,1.337-6.926,5.34c0,8.347,19.613,7.012,19.613,20.107c0,8.345-6.347,11.936-14.855,11.936
				c-5.422,0-8.679-1.001-10.762-1.67v-6.978c0.833,0.604,5.921,5.385,11.101,5.385c5.002,0,8.674-1.838,8.674-7.085
				c0-8.512-19.612-8.342-19.612-19.356c0-6.424,3.838-10.932,13.605-10.932c4.173,0,7.844,1.084,9.258,1.417V382.905
				L174.037,382.905z"/>
		</g>
	</g>
	<g>
		<g>
			<defs>
				<rect id="SVGID_21_" x="1.125" y="339.097" width="610.875" height="111.068"/>
			</defs>
			<clipPath id="SVGID_22_">
				<use xlink:href="#SVGID_21_"  overflow="visible"/>
			</clipPath>
			<path clip-path="url(#SVGID_22_)" fill="#231F20" d="M181.195,396.137c0-12.255,5.086-20.516,17.271-20.516
				c10.933,0,17.521,7.925,17.521,20.435c0,12.601-5.678,20.201-17.354,20.201C187.449,416.257,181.195,408.081,181.195,396.137
				 M186.947,365.192c0-2.339,1.921-4.255,4.254-4.255c2.338,0,4.337,1.916,4.337,4.255c0,2.334-2.001,4.256-4.337,4.256
				C188.949,369.449,186.947,367.609,186.947,365.192 M198.715,412.996c9.509,0,10.182-10.515,10.182-16.859
				c0-6.833-1.337-17.263-10.349-17.263c-9.846,0-10.261,10.43-10.261,17.263C188.287,402.398,189.789,412.996,198.715,412.996
				 M201.633,365.192c0-2.339,1.917-4.255,4.337-4.255c2.336,0,4.256,1.916,4.256,4.255c0,2.334-1.919,4.256-4.256,4.256
				C203.635,369.449,201.633,367.609,201.633,365.192"/>
		</g>
	</g>
	<g>
		<g>
			<defs>
				<rect id="SVGID_23_" x="1.125" y="339.097" width="610.875" height="111.068"/>
			</defs>
			<clipPath id="SVGID_24_">
				<use xlink:href="#SVGID_23_"  overflow="visible"/>
			</clipPath>
			<path clip-path="url(#SVGID_24_)" fill="#F9C506" d="M547.521,395.284c0-5.262,4.279-9.542,9.543-9.542
				c5.263,0,9.541,4.28,9.541,9.542c0,5.261-4.278,9.54-9.541,9.54C551.803,404.824,547.521,400.545,547.521,395.284"/>
		</g>
	</g>
	<g>
		<g>
			<defs>
				<rect id="SVGID_25_" x="1.125" y="339.097" width="610.875" height="111.068"/>
			</defs>
			<clipPath id="SVGID_26_">
				<use xlink:href="#SVGID_25_"  overflow="visible"/>
			</clipPath>
			<path clip-path="url(#SVGID_26_)" fill="#F9C506" d="M561.914,374.998c0-5.262,4.277-9.541,9.54-9.541
				c5.259,0,9.54,4.279,9.54,9.541c0,5.262-4.279,9.543-9.54,9.543C566.191,384.542,561.914,380.26,561.914,374.998"/>
		</g>
	</g>
	<g>
		<g>
			<defs>
				<rect id="SVGID_27_" x="1.125" y="339.097" width="610.875" height="111.068"/>
			</defs>
			<clipPath id="SVGID_28_">
				<use xlink:href="#SVGID_27_"  overflow="visible"/>
			</clipPath>
			<path clip-path="url(#SVGID_28_)" fill="#F9C506" d="M533.146,415.886c0-5.263,4.281-9.541,9.546-9.541
				c5.258,0,9.536,4.279,9.536,9.541c0,5.261-4.278,9.54-9.536,9.54C537.429,425.426,533.146,421.146,533.146,415.886"/>
		</g>
	</g>
	<g>
		<g>
			<defs>
				<rect id="SVGID_29_" x="1.125" y="339.097" width="610.875" height="111.068"/>
			</defs>
			<clipPath id="SVGID_30_">
				<use xlink:href="#SVGID_29_"  overflow="visible"/>
			</clipPath>
			<path clip-path="url(#SVGID_30_)" fill="#ED2D24" d="M563.691,395.284c0,0.434-0.048,0.86-0.124,1.271h-2.673v-2.574h2.666
				C563.645,394.403,563.691,394.837,563.691,395.284 M550.438,395.284c0-0.447,0.044-0.881,0.132-1.303h2.873v2.575h-2.881
				C550.48,396.146,550.438,395.718,550.438,395.284 M558.454,396.557h-2.576v-2.574h2.576V396.557z M562.529,391.542h-1.633v-1.657
				C561.529,390.337,562.088,390.896,562.529,391.542 M558.454,388.806v2.736h-2.576v-2.774c0.385-0.069,0.782-0.113,1.185-0.113
				C557.54,388.656,558.005,388.709,558.454,388.806 M553.441,389.741v1.8H551.6C552.089,390.829,552.715,390.216,553.441,389.741
				 M551.577,398.997h1.864v1.828C552.706,400.345,552.07,399.723,551.577,398.997 M555.879,401.8v-2.803h2.576v2.767
				c-0.449,0.097-0.915,0.147-1.39,0.147C556.662,401.911,556.265,401.868,555.879,401.8 M560.896,400.684v-1.687h1.656
				C562.106,399.651,561.542,400.221,560.896,400.684"/>
		</g>
	</g>
	<g>
		<g>
			<defs>
				<rect id="SVGID_31_" x="1.125" y="339.097" width="610.875" height="111.068"/>
			</defs>
			<clipPath id="SVGID_32_">
				<use xlink:href="#SVGID_31_"  overflow="visible"/>
			</clipPath>
			<path clip-path="url(#SVGID_32_)" fill="#ED2D24" d="M578.084,374.999c0,0.436-0.046,0.86-0.127,1.272h-2.676v-2.576h2.673
				C578.038,374.118,578.084,374.553,578.084,374.999 M564.823,374.999c0-0.446,0.051-0.881,0.134-1.303h2.873v2.576h-2.879
				C564.874,375.859,564.823,375.435,564.823,374.999 M572.844,376.271h-2.57v-2.574h2.57V376.271z M576.918,371.256h-1.636V369.6
				C575.921,370.053,576.474,370.611,576.918,371.256 M572.844,368.522v2.736h-2.57v-2.774c0.381-0.07,0.777-0.113,1.182-0.113
				C571.932,368.369,572.394,368.424,572.844,368.522 M567.83,369.457v1.8h-1.839C566.479,370.542,567.104,369.931,567.83,369.457
				 M565.966,378.71h1.864v1.831C567.098,380.058,566.459,379.438,565.966,378.71 M570.271,381.515v-2.804h2.571v2.765
				c-0.45,0.096-0.912,0.149-1.388,0.149C571.051,381.626,570.653,381.584,570.271,381.515 M575.282,380.399v-1.688h1.658
				C576.495,379.37,575.931,379.938,575.282,380.399"/>
		</g>
	</g>
	<g>
		<g>
			<defs>
				<rect id="SVGID_33_" x="1.125" y="339.097" width="610.875" height="111.068"/>
			</defs>
			<clipPath id="SVGID_34_">
				<use xlink:href="#SVGID_33_"  overflow="visible"/>
			</clipPath>
			<path clip-path="url(#SVGID_34_)" fill="#ED2D24" d="M549.314,415.886c0,0.438-0.043,0.86-0.124,1.271h-2.673v-2.569h2.668
				C549.268,415.004,549.314,415.438,549.314,415.886 M536.063,415.886c0-0.446,0.045-0.881,0.133-1.301h2.87v2.569h-2.878
				C536.107,416.745,536.063,416.322,536.063,415.886 M544.081,417.154h-2.575v-2.569h2.575V417.154z M548.152,412.144h-1.635
				v-1.656C547.155,410.938,547.711,411.498,548.152,412.144 M544.081,409.405v2.737h-2.575v-2.775
				c0.383-0.065,0.78-0.109,1.187-0.109C543.166,409.258,543.631,409.313,544.081,409.405 M539.064,410.343v1.801h-1.843
				C537.714,411.43,538.342,410.818,539.064,410.343 M537.203,419.596h1.861v1.831C538.332,420.944,537.695,420.323,537.203,419.596
				 M541.506,422.399v-2.806h2.575v2.768c-0.45,0.096-0.915,0.15-1.389,0.15C542.287,422.514,541.89,422.472,541.506,422.399
				 M546.519,421.283v-1.688h1.657C547.729,420.255,547.165,420.824,546.519,421.283"/>
		</g>
	</g>
	<g>
		<g>
			<defs>
				<rect id="SVGID_35_" x="1.125" y="339.097" width="610.875" height="111.068"/>
			</defs>
			<clipPath id="SVGID_36_">
				<use xlink:href="#SVGID_35_"  overflow="visible"/>
			</clipPath>
			<path clip-path="url(#SVGID_36_)" fill="#ED2D24" d="M542.936,372.496c0.288-3.043-1.955-6.952,1.109-8.951
				c-1.954,5.131,4.979,9.196,0.243,13.815l-2.465-1.51C542.29,374.874,542.821,373.718,542.936,372.496 M529.985,369.942
				c0.867-1.999,2.335-4.132,1.355-6.487c0.866,0.622,1.487,1.421,1.444,2.553c-0.044,3.221-2.132,6.709,0.242,9.529
				c-0.751,0.688-1.71,1.176-2.575,1.753C528.746,375.384,528.944,372.096,529.985,369.942 M543.889,380.893
				c0,1.288-1.268,1.489-1.908,2.244c0.244-0.667,0.47-1.466,0-2.088c-0.356-0.577-1.043-0.689-1.601-0.889
				c0.359,1.177-0.221,2.333-0.798,3.289c-0.354-0.8,0.489-2.31-0.49-2.954c-0.267-0.423-0.866-0.354-1.262-0.645
				c0,1.489,0.041,3.177-0.647,4.487c-1.023-1.132-0.266-3.442-1.286-4.797c-0.513,0.487-1.227,0.822-1.27,1.599
				c-0.289,0.865,0.157,1.644,0.223,2.465c-0.757-1.22-1.09-2.619-1.266-4.064c-0.667,0.601-1.579,1.222-1.444,2.221
				c-0.156,0.578,0.285,0.865,0.243,1.376c-0.356-0.512-1.155-0.6-1.133-1.288l0.182-0.888c-2.292,0.574-3.2-1.644-4.489-2.71
				c1.309,0.287,2.397,1.088,3.284,1.909c0.2-0.022,0.446,0.111,0.555-0.153v-0.4c-0.753-0.69-1.33-1.2-2.239-1.667
				c1.089,0.289,1.886,0.599,2.642,1.355c0.202-0.023,0.444-0.111,0.468-0.332c0.089-0.468-0.423-0.513-0.623-0.87
				c2.111-1.664,4.421-3.418,7.416-2.796c1.891,0.623,3.424,1.578,5.135,2.643c0.04,0.245-0.667,0.332-0.558,0.798
				c0.558,0.91,1.109-0.333,1.6-0.398c0.689-0.29,1.423-0.445,2.223-0.49c-1.109,0.222-2.063,0.865-2.957,1.688
				c-0.043,0.267,0.047,0.557,0.334,0.622c1-0.843,2.27-1.445,3.602-1.755C546.224,379.048,545.958,381.715,543.889,380.893"/>
		</g>
	</g>
	<g>
		<g>
			<defs>
				<rect id="SVGID_37_" x="1.125" y="339.097" width="610.875" height="111.068"/>
			</defs>
			<clipPath id="SVGID_38_">
				<use xlink:href="#SVGID_37_"  overflow="visible"/>
			</clipPath>
			<path clip-path="url(#SVGID_38_)" fill="#9B1E31" d="M545.646,377.051c0.845-1.623,1.442-3.733,0.732-5.598
				c-0.999-2.709-3.088-5.954-1.133-8.886c-0.511-0.043-0.959,0.113-1.425,0.178c-4.929,2.865,0.602,8.795-2.886,12.706
				c-1.979-1.287-5.066-1.376-7.111-0.244c-1.752-1.555-1.085-4.398-0.64-6.462c0.241-1.4,0.554-2.956,0.063-4.244
				c-0.488-1.378-1.887-2.089-3.265-2.332c0.242,1.045,0.844,1.776,0.956,2.887c-0.378,3.333-3.135,5.687-2.554,9.441
				c0.177,0.999,0.71,2,0.952,2.798c-1.176-0.312-2.6-0.465-3.841-0.154c0.089,0.421,0.285,0.865,0.486,1.199
				c1.646,1.443,2.179,3.087,4.466,3.509c0.398,1.51,1.643,1.842,2.641,3.11c0.225-1.199-0.066-2.49-0.066-3.6
				c0.535,1.445,1.38,2.777,1.823,4.243c0.241-0.333,0.534-0.599,0.731-1.043c0.466-1.268-0.599-2.4,0-3.51
				c-0.085,1.732,0.667,3.131,1.197,4.644l0.313,0.066c1.132-1.065,1.422-2.865,1.602-4.398c-0.113,1.401,0.131,2.888,0.731,4.087
				c0.732-1.286,1.443-2.554,1.822-3.997c0.133,0.222,0.334,0.421,0.241,0.71c-0.576,0.711-0.222,1.822-0.308,2.733
				c0.818-0.866,1.84-1.51,2.795-2.245c0.729-1.261,1.847-0.444,2.402-1.598c0.731-1.333,2.331-2.222,3.508-3.508
				C548.601,377.118,547.047,376.959,545.646,377.051 M542.936,372.496c0.288-3.043-1.955-6.952,1.109-8.951
				c-1.954,5.131,4.979,9.196,0.243,13.815l-2.465-1.51C542.29,374.874,542.821,373.718,542.936,372.496 M529.985,369.942
				c0.867-1.999,2.335-4.132,1.355-6.487c0.866,0.622,1.487,1.421,1.444,2.553c-0.044,3.221-2.132,6.709,0.242,9.529
				c-0.751,0.688-1.71,1.176-2.575,1.753C528.746,375.384,528.944,372.096,529.985,369.942 M543.889,380.893
				c0,1.288-1.268,1.489-1.908,2.244c0.244-0.667,0.47-1.466,0-2.088c-0.356-0.577-1.043-0.689-1.601-0.889
				c0.359,1.177-0.221,2.333-0.798,3.289c-0.354-0.8,0.489-2.31-0.49-2.954c-0.267-0.423-0.866-0.354-1.262-0.645
				c0,1.489,0.041,3.177-0.647,4.487c-1.023-1.132-0.266-3.442-1.286-4.797c-0.513,0.487-1.227,0.822-1.27,1.599
				c-0.289,0.865,0.157,1.644,0.223,2.465c-0.757-1.22-1.09-2.619-1.266-4.064c-0.667,0.601-1.579,1.222-1.444,2.221
				c-0.156,0.578,0.285,0.865,0.243,1.376c-0.356-0.512-1.155-0.6-1.133-1.288l0.182-0.888c-2.292,0.574-3.2-1.644-4.489-2.71
				c1.309,0.287,2.397,1.088,3.284,1.909c0.2-0.022,0.446,0.111,0.555-0.153v-0.4c-0.753-0.69-1.33-1.2-2.239-1.667
				c1.089,0.289,1.886,0.599,2.642,1.355c0.202-0.023,0.444-0.111,0.468-0.332c0.089-0.468-0.423-0.513-0.623-0.87
				c2.111-1.664,4.421-3.418,7.416-2.796c1.891,0.623,3.424,1.578,5.135,2.643c0.04,0.245-0.667,0.332-0.558,0.798
				c0.558,0.91,1.109-0.333,1.6-0.398c0.689-0.29,1.423-0.445,2.223-0.49c-1.109,0.222-2.063,0.865-2.957,1.688
				c-0.043,0.267,0.047,0.557,0.334,0.622c1-0.843,2.27-1.445,3.602-1.755C546.224,379.048,545.958,381.715,543.889,380.893"/>
		</g>
	</g>
	<g>
		<g>
			<defs>
				<rect id="SVGID_39_" x="1.125" y="339.097" width="610.875" height="111.068"/>
			</defs>
			<clipPath id="SVGID_40_">
				<use xlink:href="#SVGID_39_"  overflow="visible"/>
			</clipPath>
			<path clip-path="url(#SVGID_40_)" fill="#9B1E31" d="M546.495,395.284c0,5.826,4.739,10.569,10.569,10.569
				c5.829,0,10.57-4.743,10.57-10.569c0-5.83-4.74-10.571-10.57-10.571C551.235,384.713,546.495,389.455,546.495,395.284
				 M547.521,395.284c0-5.262,4.279-9.542,9.543-9.542c5.263,0,9.541,4.28,9.541,9.542c0,5.261-4.278,9.54-9.541,9.54
				C551.803,404.824,547.521,400.545,547.521,395.284"/>
		</g>
	</g>
	<g>
		<g>
			<defs>
				<rect id="SVGID_41_" x="1.125" y="339.097" width="610.875" height="111.068"/>
			</defs>
			<clipPath id="SVGID_42_">
				<use xlink:href="#SVGID_41_"  overflow="visible"/>
			</clipPath>
			<path clip-path="url(#SVGID_42_)" fill="#9B1E31" d="M557.064,387.627c-4.224,0-7.657,3.434-7.657,7.657
				c0,4.22,3.435,7.653,7.657,7.653c4.224,0,7.653-3.435,7.653-7.653C564.719,391.062,561.286,387.627,557.064,387.627
				 M563.691,395.284c0,0.434-0.048,0.86-0.124,1.271h-2.673v-2.574h2.666C563.645,394.403,563.691,394.837,563.691,395.284
				 M550.438,395.284c0-0.447,0.044-0.881,0.132-1.303h2.873v2.575h-2.881C550.48,396.146,550.438,395.718,550.438,395.284
				 M558.454,396.557h-2.576v-2.574h2.576V396.557z M559.122,393.313h-3.91v3.914h3.91V393.313z M560.227,393.313v3.914h3.175
				c-0.118,0.384-0.273,0.75-0.457,1.103h-2.718v2.779c-0.351,0.189-0.721,0.346-1.104,0.472v-3.251h-3.91v3.313
				c-0.383-0.107-0.754-0.258-1.104-0.434v-2.879h-2.923c-0.187-0.352-0.338-0.718-0.455-1.103h3.378v-3.914h-3.373
				c0.121-0.382,0.274-0.75,0.464-1.103h2.909v-2.849c0.351-0.176,0.721-0.324,1.104-0.436v3.284h3.91v-3.223
				c0.384,0.125,0.755,0.283,1.104,0.474v2.749h2.701c0.188,0.351,0.346,0.72,0.463,1.103L560.227,393.313L560.227,393.313
				L560.227,393.313z M562.529,391.542h-1.633v-1.657C561.529,390.337,562.088,390.896,562.529,391.542 M558.454,388.806v2.736
				h-2.576v-2.774c0.385-0.069,0.782-0.113,1.185-0.113C557.54,388.656,558.005,388.709,558.454,388.806 M553.441,389.741v1.8H551.6
				C552.089,390.829,552.715,390.216,553.441,389.741 M551.577,398.997h1.864v1.828C552.706,400.345,552.07,399.723,551.577,398.997
				 M555.879,401.8v-2.803h2.576v2.767c-0.449,0.097-0.915,0.147-1.39,0.147C556.662,401.911,556.265,401.868,555.879,401.8
				 M560.896,400.684v-1.687h1.656C562.106,399.651,561.542,400.221,560.896,400.684"/>
		</g>
	</g>
	<g>
		<g>
			<defs>
				<rect id="SVGID_43_" x="1.125" y="339.097" width="610.875" height="111.068"/>
			</defs>
			<clipPath id="SVGID_44_">
				<use xlink:href="#SVGID_43_"  overflow="visible"/>
			</clipPath>
			<path clip-path="url(#SVGID_44_)" fill="#9B1E31" d="M560.884,374.998c0,5.829,4.743,10.571,10.572,10.571
				c5.826,0,10.569-4.743,10.569-10.571s-4.742-10.57-10.569-10.57C565.627,364.429,560.884,369.171,560.884,374.998
				 M561.914,374.998c0-5.262,4.277-9.541,9.54-9.541c5.259,0,9.54,4.279,9.54,9.541c0,5.262-4.279,9.543-9.54,9.543
				C566.191,384.542,561.914,380.26,561.914,374.998"/>
		</g>
	</g>
	<g>
		<g>
			<defs>
				<rect id="SVGID_45_" x="1.125" y="339.097" width="610.875" height="111.068"/>
			</defs>
			<clipPath id="SVGID_46_">
				<use xlink:href="#SVGID_45_"  overflow="visible"/>
			</clipPath>
			<path clip-path="url(#SVGID_46_)" fill="#9B1E31" d="M571.454,367.342c-4.221,0-7.653,3.434-7.653,7.657
				c0,4.22,3.434,7.654,7.653,7.654c4.223,0,7.657-3.434,7.657-7.654C579.111,370.776,575.677,367.342,571.454,367.342
				 M578.084,374.999c0,0.436-0.046,0.86-0.127,1.272h-2.676v-2.576h2.673C578.038,374.118,578.084,374.553,578.084,374.999
				 M564.823,374.999c0-0.446,0.051-0.881,0.134-1.303h2.873v2.576h-2.879C564.874,375.859,564.823,375.435,564.823,374.999
				 M572.844,376.271h-2.57v-2.574h2.57V376.271z M573.511,373.029h-3.908v3.912h3.908V373.029z M574.615,373.029v3.912h3.177
				c-0.121,0.385-0.275,0.75-0.458,1.104h-2.719v2.779c-0.353,0.191-0.721,0.345-1.105,0.474v-3.253h-3.908v3.315
				c-0.383-0.112-0.751-0.26-1.104-0.436v-2.879h-2.922c-0.185-0.354-0.339-0.719-0.457-1.104h3.379v-3.912h-3.374
				c0.121-0.387,0.279-0.754,0.463-1.104h2.911v-2.85c0.354-0.176,0.721-0.323,1.104-0.435v3.286h3.908v-3.223
				c0.385,0.125,0.754,0.283,1.105,0.474v2.75h2.704c0.188,0.351,0.341,0.717,0.464,1.105h-3.168V373.029z M576.918,371.256h-1.636
				V369.6C575.921,370.053,576.474,370.611,576.918,371.256 M572.844,368.522v2.736h-2.57v-2.774
				c0.381-0.07,0.777-0.113,1.182-0.113C571.932,368.369,572.394,368.424,572.844,368.522 M567.83,369.457v1.8h-1.839
				C566.479,370.542,567.104,369.931,567.83,369.457 M565.966,378.71h1.864v1.831C567.098,380.058,566.459,379.438,565.966,378.71
				 M570.271,381.515v-2.804h2.571v2.765c-0.45,0.096-0.912,0.149-1.388,0.149C571.051,381.626,570.653,381.584,570.271,381.515
				 M575.282,380.399v-1.688h1.658C576.495,379.37,575.931,379.938,575.282,380.399"/>
		</g>
	</g>
	<g>
		<g>
			<defs>
				<rect id="SVGID_47_" x="1.125" y="339.097" width="610.875" height="111.068"/>
			</defs>
			<clipPath id="SVGID_48_">
				<use xlink:href="#SVGID_47_"  overflow="visible"/>
			</clipPath>
			<path clip-path="url(#SVGID_48_)" fill="#9B1E31" d="M532.121,415.886c0,5.828,4.74,10.568,10.57,10.568
				c5.822,0,10.566-4.74,10.566-10.568c0-5.829-4.743-10.57-10.566-10.57C536.861,405.314,532.121,410.057,532.121,415.886
				 M533.146,415.886c0-5.263,4.281-9.541,9.546-9.541c5.258,0,9.536,4.279,9.536,9.541c0,5.261-4.278,9.54-9.536,9.54
				C537.429,425.426,533.146,421.146,533.146,415.886"/>
		</g>
	</g>
	<g>
		<g>
			<defs>
				<rect id="SVGID_49_" x="1.125" y="339.097" width="610.875" height="111.068"/>
			</defs>
			<clipPath id="SVGID_50_">
				<use xlink:href="#SVGID_49_"  overflow="visible"/>
			</clipPath>
			<path clip-path="url(#SVGID_50_)" fill="#9B1E31" d="M542.691,408.231c-4.224,0-7.657,3.433-7.657,7.653
				c0,4.222,3.435,7.656,7.657,7.656c4.22,0,7.651-3.436,7.651-7.656C550.344,411.664,546.909,408.231,542.691,408.231
				 M549.314,415.886c0,0.438-0.043,0.86-0.124,1.271h-2.673v-2.569h2.668C549.268,415.004,549.314,415.438,549.314,415.886
				 M536.063,415.886c0-0.446,0.045-0.881,0.133-1.301h2.87v2.569h-2.878C536.107,416.745,536.063,416.322,536.063,415.886
				 M544.081,417.154h-2.575v-2.569h2.575V417.154z M544.748,413.914h-3.909v3.91h3.909V413.914z M545.85,413.914v3.91h3.178
				c-0.121,0.388-0.276,0.754-0.456,1.105h-2.722v2.779c-0.351,0.188-0.717,0.346-1.102,0.473v-3.252h-3.909v3.313
				c-0.385-0.109-0.755-0.257-1.105-0.437v-2.877h-2.925c-0.184-0.352-0.338-0.717-0.456-1.105h3.381v-3.91h-3.372
				c0.121-0.385,0.275-0.753,0.46-1.104h2.912v-2.851c0.352-0.177,0.72-0.326,1.105-0.438v3.287h3.909v-3.225
				c0.384,0.126,0.751,0.281,1.102,0.475v2.75h2.705c0.185,0.351,0.345,0.719,0.462,1.104L545.85,413.914L545.85,413.914z
				 M548.152,412.144h-1.635v-1.656C547.155,410.938,547.711,411.498,548.152,412.144 M544.081,409.405v2.737h-2.575v-2.775
				c0.383-0.065,0.78-0.109,1.187-0.109C543.166,409.258,543.631,409.313,544.081,409.405 M539.064,410.343v1.801h-1.843
				C537.714,411.43,538.342,410.818,539.064,410.343 M537.203,419.596h1.861v1.831C538.332,420.944,537.695,420.323,537.203,419.596
				 M541.506,422.399v-2.806h2.575v2.768c-0.45,0.096-0.915,0.15-1.389,0.15C542.287,422.514,541.89,422.472,541.506,422.399
				 M546.519,421.283v-1.688h1.657C547.729,420.255,547.165,420.824,546.519,421.283"/>
		</g>
	</g>
	<g>
		<g>
			<defs>
				<rect id="SVGID_51_" x="1.125" y="339.097" width="610.875" height="111.068"/>
			</defs>
			<clipPath id="SVGID_52_">
				<use xlink:href="#SVGID_51_"  overflow="visible"/>
			</clipPath>
			<path clip-path="url(#SVGID_52_)" fill="#9B1E31" d="M564.65,359.855c-0.47,1.566-1.611,5.06-3.047,7.075
				c-1.572,2.211-3.591,3.73-5.367,5.069c-1.112,0.84-2.074,1.567-2.779,2.343c-2.277,2.526-3.561,5.886-4.69,8.846
				c-0.734,1.925-1.372,3.586-2.122,4.583c-1.903,2.51-3.192,3.446-4.555,4.436c-1.422,1.033-2.887,2.1-5.03,4.963
				c-2.272,3.041-3.015,6.141-3.512,8.192l-0.108,0.448c-0.604,2.459-4.732,6.396-7.384,8.721l-0.62,0.453l0.366,1.165l0.723-0.646
				c2.721-2.366,7.231-6.629,7.924-9.446l0.107-0.452c0.476-1.973,1.192-4.945,3.335-7.816c2.049-2.74,3.39-3.712,4.807-4.744
				c1.366-0.992,2.776-2.019,4.774-4.65c0.842-1.113,1.499-2.839,2.267-4.837c1.097-2.877,2.342-6.137,4.491-8.521
				c0.633-0.704,1.562-1.402,2.631-2.208c1.803-1.359,3.95-2.995,5.591-5.298c1.563-2.199,2.759-6.018,3.231-7.678h-1.031
				L564.65,359.855L564.65,359.855z M545.242,430.939c0.751-0.82,1.736-1.796,2.767-2.505l1.505-0.973
				c1.408-0.861,2.182-1.338,4.143-4.152c0.59-0.846,1.183-2.555,1.87-4.53c0.986-2.837,2.215-6.365,3.741-8.097
				c1.505-1.707,2.578-2.377,3.617-3.021l1.123-0.736c1.147-0.813,2.561-1.966,4.322-4.333c1.169-1.566,1.693-3.373,2.245-5.287
				l0.936-2.936l0.057-0.149c0.54-1.451,1.049-2.823,2.289-4.241c1.047-1.201,2.414-2.139,3.861-3.129
				c1.807-1.238,3.675-2.517,5.297-4.5c0.125-0.154,0.246-0.326,0.367-0.506v-2.151c-0.368,0.794-0.765,1.498-1.175,2
				c-1.523,1.871-3.329,3.106-5.071,4.3c-1.507,1.032-2.929,2.004-4.063,3.306c-1.359,1.561-1.899,3.017-2.478,4.561l-0.056,0.148
				l-0.957,3.007c-0.551,1.9-1.021,3.543-2.081,4.959c-1.675,2.249-3.01,3.334-4.089,4.104l-1.073,0.703
				c-1.104,0.688-2.243,1.397-3.848,3.22c-1.659,1.884-2.871,5.365-3.942,8.436c-0.636,1.831-1.233,3.557-1.74,4.279
				c-1.839,2.639-2.465,3.022-3.834,3.865l-1.552,1.002c-1.293,0.889-2.497,2.135-3.31,3.067L545.242,430.939z"/>
		</g>
	</g>
</g>
</svg>
